<svg width="32" height="32" viewBox="0 0 32 32" fill="none" xmlns="http://www.w3.org/2000/svg">
<circle cx="16" cy="16" r="16" fill="#494F51"/>
<path d="M12.5 20C11.675 20 11.0075 20.675 11.0075 21.5C11.0075 22.325 11.675 23 12.5 23C13.325 23 14 22.325 14 21.5C14 20.675 13.325 20 12.5 20ZM8 8V9.5H9.5L12.2 15.1925L11.1875 17.03C11.0675 17.24 11 17.4875 11 17.75C11 18.575 11.675 19.25 12.5 19.25H21.5V17.75H12.815C12.71 17.75 12.6275 17.6675 12.6275 17.5625L12.65 17.4725L13.325 16.25H18.9125C19.475 16.25 19.97 15.9425 20.225 15.4775L22.91 10.61C22.97 10.505 23 10.3775 23 10.25C23 9.8375 22.6625 9.5 22.25 9.5H11.1575L10.4525 8H8ZM20 20C19.175 20 18.5075 20.675 18.5075 21.5C18.5075 22.325 19.175 23 20 23C20.825 23 21.5 22.325 21.5 21.5C21.5 20.675 20.825 20 20 20Z" fill="white"/>
</svg>
