<svg width="36" height="36" viewBox="0 0 36 36" fill="none" xmlns="http://www.w3.org/2000/svg">
<circle cx="16" cy="20" r="16" fill="#494F51"/>
<path d="M12.5 24C11.675 24 11.0075 24.675 11.0075 25.5C11.0075 26.325 11.675 27 12.5 27C13.325 27 14 26.325 14 25.5C14 24.675 13.325 24 12.5 24ZM8 12V13.5H9.5L12.2 19.1925L11.1875 21.03C11.0675 21.24 11 21.4875 11 21.75C11 22.575 11.675 23.25 12.5 23.25H21.5V21.75H12.815C12.71 21.75 12.6275 21.6675 12.6275 21.5625L12.65 21.4725L13.325 20.25H18.9125C19.475 20.25 19.97 19.9425 20.225 19.4775L22.91 14.61C22.97 14.505 23 14.3775 23 14.25C23 13.8375 22.6625 13.5 22.25 13.5H11.1575L10.4525 12H8ZM20 24C19.175 24 18.5075 24.675 18.5075 25.5C18.5075 26.325 19.175 27 20 27C20.825 27 21.5 26.325 21.5 25.5C21.5 24.675 20.825 24 20 24Z" fill="white"/>
<g filter="url(#filter0_d_221_318)">
<rect x="20" y="4" width="12" height="8" rx="4" fill="#FF0000"/>
<path d="M26.5195 11H25.8867V6.95312C25.8867 6.79948 25.8867 6.66797 25.8867 6.55859C25.8893 6.44661 25.8919 6.34505 25.8945 6.25391C25.8997 6.16016 25.9062 6.0651 25.9141 5.96875C25.8333 6.05208 25.7578 6.1237 25.6875 6.18359C25.6172 6.24089 25.5299 6.3125 25.4258 6.39844L24.7734 6.92188L24.4336 6.48047L25.9805 5.28906H26.5195V11Z" fill="white"/>
</g>
<defs>
<filter id="filter0_d_221_318" x="16" y="0" width="20" height="16" filterUnits="userSpaceOnUse" color-interpolation-filters="sRGB">
<feFlood flood-opacity="0" result="BackgroundImageFix"/>
<feColorMatrix in="SourceAlpha" type="matrix" values="0 0 0 0 0 0 0 0 0 0 0 0 0 0 0 0 0 0 127 0" result="hardAlpha"/>
<feOffset/>
<feGaussianBlur stdDeviation="2"/>
<feComposite in2="hardAlpha" operator="out"/>
<feColorMatrix type="matrix" values="0 0 0 0 0 0 0 0 0 0 0 0 0 0 0 0 0 0 0.25 0"/>
<feBlend mode="normal" in2="BackgroundImageFix" result="effect1_dropShadow_221_318"/>
<feBlend mode="normal" in="SourceGraphic" in2="effect1_dropShadow_221_318" result="shape"/>
</filter>
</defs>
</svg>
