<svg width="37" height="19" viewBox="0 0 37 19" fill="none" xmlns="http://www.w3.org/2000/svg">
<path d="M8.31641 19L4.8125 6.66016H4.70703C4.73828 6.98047 4.76953 7.41406 4.80078 7.96094C4.83984 8.50781 4.875 9.09766 4.90625 9.73047C4.9375 10.3633 4.95312 10.9727 4.95312 11.5586V19H0.851562V1.86719H7.01562L10.5898 14.0312H10.6836L14.1875 1.86719H20.3633V19H16.1094V11.4883C16.1094 10.9492 16.1172 10.3711 16.1328 9.75391C16.1562 9.12891 16.1797 8.54297 16.2031 7.99609C16.2344 7.44141 16.2617 7.00391 16.2852 6.68359H16.1797L12.7227 19H8.31641ZM25.9906 5.72266V19H21.4086V5.72266H25.9906ZM23.7172 0.378906C24.3734 0.378906 24.9438 0.515625 25.4281 0.789062C25.9203 1.0625 26.1664 1.60547 26.1664 2.41797C26.1664 3.20703 25.9203 3.74219 25.4281 4.02344C24.9438 4.29688 24.3734 4.43359 23.7172 4.43359C23.0453 4.43359 22.4711 4.29688 21.9945 4.02344C21.5258 3.74219 21.2914 3.20703 21.2914 2.41797C21.2914 1.60547 21.5258 1.0625 21.9945 0.789062C22.4711 0.515625 23.0453 0.378906 23.7172 0.378906ZM36.9852 19H27.6219V1.86719H36.9852V2.95703H28.8289V9.44922H36.5281V10.5391H28.8289V17.9102H36.9852V19Z" fill="#0CB093"/>
</svg>
